<?xml version="1.0" standalone="no"?>
<!DOCTYPE svg PUBLIC "-//W3C//DTD SVG 20010904//EN"
 "http://www.w3.org/TR/2001/REC-SVG-20010904/DTD/svg10.dtd">
<svg version="1.0" xmlns="http://www.w3.org/2000/svg"
 width="500.000000pt" height="500.000000pt" viewBox="0 0 500.000000 500.000000"
 preserveAspectRatio="xMidYMid meet">

<g transform="translate(0.000000,500.000000) scale(0.100000,-0.100000)"
fill="#000000" stroke="none">
<path d="M1340 3990 c-608 -115 -1114 -211 -1125 -213 -11 -2 1017 -4 2285 -5
l2305 0 -1135 213 c-624 118 -1155 214 -1180 214 -25 -1 -542 -95 -1150 -209z
m1705 -6 l490 -92 -1035 0 c-569 0 -1026 3 -1015 5 281 59 1008 189 1035 185
19 -3 256 -47 525 -98z"/>
<path d="M3400 3664 c-256 -28 -454 -101 -563 -209 -145 -142 -236 -430 -224
-710 10 -239 94 -396 277 -522 74 -50 139 -80 494 -224 196 -80 354 -150 375
-167 52 -41 71 -85 71 -162 0 -101 -33 -203 -84 -258 -33 -37 -92 -63 -175
-78 -82 -14 -475 -17 -895 -5 -149 4 -230 3 -232 -4 -8 -23 -64 -419 -60 -423
16 -16 374 -73 581 -93 203 -20 616 -17 753 4 196 31 361 88 445 156 179 142
286 457 275 811 -4 124 -9 156 -31 219 -35 101 -88 173 -173 241 -96 76 -204
127 -559 265 -165 64 -324 130 -354 148 -89 53 -110 108 -91 243 12 90 56 195
92 218 13 8 52 23 88 33 59 16 112 18 603 15 429 -2 537 0 537 10 0 7 13 100
29 206 15 105 26 192 25 192 -2 0 -47 11 -101 24 -307 77 -773 106 -1103 70z"/>
<path d="M1105 3625 c-247 -46 -420 -202 -479 -431 -8 -32 -68 -430 -132 -884
-121 -859 -132 -966 -105 -1080 45 -188 172 -314 378 -373 76 -21 91 -22 508
-20 387 1 729 13 872 29 l51 6 6 92 c3 50 8 153 10 229 l5 137 -557 0 c-510 0
-560 1 -592 18 -40 20 -70 71 -70 121 0 32 65 531 75 579 l5 22 550 0 c303 0
550 1 550 3 33 239 55 428 52 432 -3 3 -250 5 -549 5 -322 0 -543 4 -543 9 0
5 16 117 35 248 43 283 54 315 130 353 l50 25 563 3 c309 1 562 6 562 11 0 4
16 100 35 212 19 112 35 209 35 215 0 38 -1268 72 -1445 39z"/>
</g>
</svg>
